<svg width="266" height="116" viewBox="0 0 266 116" fill="none" xmlns="http://www.w3.org/2000/svg">
<rect width="266" height="116" fill="white"/>
<g clip-path="url(#clip0_616_23)">
<path d="M77.9897 25.5083H88.823L77.2813 66.8833H65.7397L58.4897 40.6541L51.2813 66.8833H39.7397L28.0105 25.5083H38.8022L45.9897 55.2791L53.3438 25.5083H64.7813L71.8647 54.8L77.9897 25.5083Z" fill="#1649FF"/>
<path d="M106.152 67.3C101.36 67.3 97.428 65.7583 94.3603 62.675C91.2874 59.5916 89.7561 55.4979 89.7561 50.3833C89.7561 45.2739 91.2769 41.2062 94.3186 38.175C97.3707 35.1489 101.319 33.6333 106.152 33.6333C110.985 33.6333 114.991 35.1281 118.173 38.1125C121.35 41.1021 122.944 45.2479 122.944 50.55C122.944 51.6906 122.866 52.7531 122.714 53.7375H100.069C100.261 55.1958 100.907 56.3937 102.006 57.3208C103.116 58.2375 104.308 58.6958 105.589 58.6958C106.866 58.6958 107.819 58.5708 108.444 58.3208C109.069 58.0604 109.527 57.8 109.819 57.55C110.121 57.2896 110.511 56.8625 110.985 56.2791H121.881C120.933 59.5708 119.048 62.2323 116.214 64.2583C113.392 66.2896 110.037 67.3 106.152 67.3ZM112.444 47.425C112.287 45.8989 111.621 44.6541 110.444 43.6958C109.261 42.7271 107.866 42.2375 106.256 42.2375C104.642 42.2375 103.287 42.7271 102.194 43.6958C101.095 44.6541 100.407 45.8989 100.131 47.425H112.444Z" fill="#1649FF"/>
<path d="M159.48 38.175C159.48 40.9666 158.469 43.6646 156.459 46.2583C155.402 47.5916 153.818 48.6854 151.709 49.5291C149.61 50.3781 147.131 50.8 144.271 50.8H138.021V66.8833H127.938V25.5083H144.271C149.063 25.5083 152.792 26.7479 155.459 29.2166C158.136 31.6906 159.48 34.675 159.48 38.175ZM138.021 43.1333H144.271C145.797 43.1333 147 42.6854 147.875 41.7791C148.761 40.8781 149.209 39.6906 149.209 38.2166C149.209 36.7479 148.756 35.5396 147.855 34.5916C146.948 33.6489 145.756 33.175 144.271 33.175H138.021V43.1333Z" fill="#1649FF"/>
<path d="M164.057 66.8834V23.2793H174.14V66.8834H164.057Z" fill="#1649FF"/>
<path d="M201.247 56.5708C202.58 55.1541 203.247 53.1125 203.247 50.4458C203.247 47.7687 202.559 45.7323 201.184 44.3416C199.809 42.9406 198.174 42.2375 196.289 42.2375C194.398 42.2375 192.773 42.9406 191.414 44.3416C190.065 45.7323 189.393 47.7687 189.393 50.4458C189.393 53.1125 190.086 55.1541 191.476 56.5708C192.877 57.9875 194.523 58.6958 196.414 58.6958C198.299 58.6958 199.914 57.9875 201.247 56.5708ZM184.122 62.6541C180.799 59.5448 179.143 55.4562 179.143 50.3833C179.143 45.3156 180.789 41.2583 184.08 38.2166C187.382 35.1646 191.476 33.6333 196.351 33.6333C201.226 33.6333 205.299 35.1646 208.58 38.2166C211.856 41.2583 213.497 45.3156 213.497 50.3833C213.497 55.4562 211.862 59.5448 208.601 62.6541C205.351 65.7531 201.289 67.3 196.414 67.3C191.539 67.3 187.44 65.7531 184.122 62.6541Z" fill="#1649FF"/>
<path d="M232.479 58.3418H236.062V66.8834H230.937C227.239 66.8834 224.38 66.0709 222.354 64.4459C220.338 62.8105 219.333 60.0032 219.333 56.0293V42.3626H216.271V33.9876H219.333V25.9875H229.416V33.9876H236V42.3626H229.416V56.0293C229.416 57.5709 230.437 58.3418 232.479 58.3418Z" fill="#1649FF"/>
<path d="M40.3939 90.5389V78.7473H41.9772V90.5389C41.9772 91.7473 41.6022 92.7212 40.8522 93.4556C40.1022 94.1952 39.0918 94.5598 37.8314 94.5598C36.5814 94.5598 35.571 94.1952 34.8105 93.4556C34.0605 92.7212 33.6855 91.7473 33.6855 90.5389H35.3105C35.321 91.2889 35.5293 91.9243 35.9355 92.4348C36.3366 92.9348 36.9772 93.1848 37.8522 93.1848C38.7272 93.1848 39.3626 92.9348 39.7689 92.4348C40.1855 91.9243 40.3939 91.2889 40.3939 90.5389Z" fill="#1649FF"/>
<path d="M51.796 93.3513C53.0876 93.3513 54.197 92.893 55.1293 91.9763C56.072 91.0493 56.546 89.7888 56.546 88.2055C56.546 86.6118 56.0981 85.3513 55.2126 84.4347C54.322 83.518 53.2335 83.0597 51.9418 83.0597C50.6606 83.0597 49.5929 83.518 48.7335 84.4347C47.8689 85.3409 47.4418 86.5961 47.4418 88.2055C47.4418 89.8201 47.8429 91.0805 48.6501 91.9972C49.4679 92.9034 50.5147 93.3513 51.796 93.3513ZM51.8168 94.6222C50.0356 94.6222 48.5929 94.0336 47.4835 92.8513C46.3845 91.6743 45.8376 90.1326 45.8376 88.2263C45.8376 86.3097 46.421 84.7628 47.5876 83.5805C48.7647 82.3878 50.2387 81.7888 52.0043 81.7888C53.7804 81.7888 55.2595 82.3878 56.4418 83.5805C57.6189 84.7628 58.2126 86.3045 58.2126 88.2055C58.2126 90.0961 57.5876 91.6378 56.3376 92.8305C55.0981 94.0284 53.5929 94.6222 51.8168 94.6222Z" fill="#1649FF"/>
<path d="M60.7073 85.4347C60.7073 84.4086 61.1292 83.5493 61.9781 82.8513C62.8219 82.143 63.9 81.7888 65.2073 81.7888C66.525 81.7888 67.551 82.1378 68.2906 82.8305C69.025 83.5128 69.426 84.4555 69.4989 85.6638H67.8739C67.8427 84.9138 67.5875 84.2993 67.1031 83.8097C66.6135 83.3097 65.9417 83.0597 65.0823 83.0597C64.2177 83.0597 63.5458 83.2784 63.0614 83.7055C62.5719 84.1222 62.3323 84.6326 62.3323 85.2263C62.3323 85.8253 62.5094 86.2993 62.8739 86.643C63.2333 86.992 63.6864 87.2263 64.2281 87.3513C64.7802 87.4659 65.3792 87.6013 66.0198 87.768C66.6708 87.9347 67.2698 88.117 67.8114 88.3097C68.3635 88.492 68.8219 88.8305 69.1864 89.3305C69.5458 89.8201 69.7281 90.4503 69.7281 91.2263C69.7281 92.2159 69.3114 93.0284 68.4781 93.6638C67.6552 94.3045 66.5667 94.6222 65.2073 94.6222C63.8583 94.6222 62.7906 94.2784 61.9989 93.5805C61.2177 92.8878 60.7906 91.9451 60.7073 90.7472H62.3531C62.3792 91.5128 62.65 92.1378 63.1656 92.6222C63.676 93.1118 64.3792 93.3513 65.2698 93.3513C66.1708 93.3513 66.8739 93.1586 67.3739 92.768C67.8739 92.3826 68.1239 91.8878 68.1239 91.2888C68.1239 90.6795 67.9417 90.2003 67.5823 89.8513C67.2177 89.5076 66.7594 89.268 66.2073 89.143C65.65 89.018 65.051 88.8722 64.4156 88.7055C63.775 88.5388 63.176 88.367 62.6239 88.1847C62.0823 88.0076 61.6239 87.6795 61.2489 87.2055C60.8844 86.7368 60.7073 86.143 60.7073 85.4347Z" fill="#1649FF"/>
<path d="M78.2135 94.6222C76.4322 94.6222 74.9947 94.0336 73.901 92.8513C72.802 91.6743 72.2551 90.1222 72.2551 88.2055C72.2551 86.2784 72.8176 84.7263 73.9426 83.5597C75.0676 82.3826 76.5155 81.7888 78.2968 81.7888C80.0885 81.7888 81.5103 82.3461 82.5676 83.4555C83.6353 84.5545 84.1718 85.9138 84.1718 87.5388C84.1718 87.9868 84.1353 88.393 84.0676 88.768H73.8801C73.9322 90.1847 74.3645 91.3045 75.1718 92.1222C75.9739 92.9451 76.9895 93.3513 78.2135 93.3513C79.1562 93.3513 79.9635 93.1378 80.6301 92.7055C81.3072 92.2628 81.7812 91.6847 82.0468 90.9763H83.7343C83.328 92.0336 82.6614 92.9086 81.7343 93.6013C80.8176 94.2836 79.6405 94.6222 78.2135 94.6222ZM82.526 87.518C82.526 86.1586 82.1145 85.0753 81.2968 84.268C80.4739 83.4659 79.453 83.0597 78.2343 83.0597C77.026 83.0597 76.0103 83.4555 75.1926 84.2472C74.3853 85.0388 73.9478 86.1326 73.8801 87.518H82.526Z" fill="#1649FF"/>
<path d="M105.07 94.3931L103.758 90.7473H96.466L95.1326 94.3931H93.5493L99.2993 78.7473H100.924L106.674 94.3931H105.07ZM96.9243 89.4764H103.299L100.112 80.7264L96.9243 89.4764Z" fill="#1649FF"/>
<path d="M115.005 94.6222C113.282 94.6222 111.849 94.0128 110.714 92.7888C109.589 91.5701 109.026 90.0128 109.026 88.1222C109.026 86.2211 109.589 84.6951 110.714 83.5388C111.839 82.3722 113.266 81.7888 115.005 81.7888C116.115 81.7888 117.094 82.0597 117.943 82.6013C118.787 83.143 119.412 83.8461 119.818 84.7055V82.018H121.422V94.8305C121.422 96.4972 120.865 97.8513 119.755 98.893C118.641 99.9451 117.282 100.476 115.672 100.476C114.073 100.476 112.719 100.081 111.61 99.2888C110.511 98.4972 109.88 97.5232 109.714 96.3722H111.276C111.469 97.1326 111.969 97.7784 112.776 98.3097C113.578 98.8357 114.558 99.1013 115.714 99.1013C116.88 99.1013 117.849 98.7159 118.63 97.9555C119.422 97.1899 119.818 96.1482 119.818 94.8305V91.6638C119.412 92.5284 118.787 93.2368 117.943 93.7888C117.094 94.3461 116.115 94.6222 115.005 94.6222ZM118.464 91.8722C119.365 90.9451 119.818 89.7211 119.818 88.2055C119.818 86.6951 119.365 85.4711 118.464 84.5388C117.573 83.6118 116.49 83.143 115.214 83.143C113.948 83.143 112.87 83.5961 111.985 84.4972C111.094 85.3878 110.651 86.5909 110.651 88.1013C110.651 89.617 111.094 90.8618 111.985 91.8305C112.886 92.7888 113.969 93.268 115.235 93.268C116.495 93.268 117.573 92.8045 118.464 91.8722Z" fill="#1649FF"/>
<path d="M133.878 82.0181H135.462V94.3931H133.878V92.3722C133.045 93.8722 131.675 94.6222 129.774 94.6222C128.399 94.6222 127.243 94.1743 126.316 93.2681C125.399 92.367 124.941 91.0754 124.941 89.3931V82.0181H126.503V89.0806C126.503 90.4451 126.826 91.4868 127.483 92.2056C128.149 92.9139 129.05 93.2681 130.191 93.2681C131.326 93.2681 132.222 92.9139 132.878 92.2056C133.545 91.4868 133.878 90.4451 133.878 89.0806V82.0181Z" fill="#1649FF"/>
<path d="M147.759 91.8723C148.66 90.9452 149.113 89.7212 149.113 88.2056C149.113 86.6952 148.66 85.4712 147.759 84.5389C146.868 83.6118 145.785 83.1431 144.509 83.1431C143.243 83.1431 142.165 83.5962 141.28 84.4973C140.389 85.3879 139.946 86.591 139.946 88.1014C139.946 89.617 140.389 90.8618 141.28 91.8306C142.181 92.7889 143.264 93.2681 144.53 93.2681C145.79 93.2681 146.868 92.8045 147.759 91.8723ZM144.3 94.6223C142.576 94.6223 141.144 94.0129 140.009 92.7889C138.884 91.5702 138.321 90.0129 138.321 88.1223C138.321 86.2212 138.884 84.6952 140.009 83.5389C141.134 82.3723 142.561 81.7889 144.3 81.7889C145.41 81.7889 146.389 82.0598 147.238 82.6014C148.082 83.1431 148.707 83.8462 149.113 84.7056V77.6223H150.717V94.3931H149.113V91.6639C148.707 92.5285 148.082 93.2368 147.238 93.7889C146.389 94.3462 145.41 94.6223 144.3 94.6223Z" fill="#1649FF"/>
<path d="M159.527 94.6222C157.746 94.6222 156.308 94.0336 155.215 92.8513C154.116 91.6743 153.569 90.1222 153.569 88.2055C153.569 86.2784 154.131 84.7263 155.256 83.5597C156.381 82.3826 157.829 81.7888 159.611 81.7888C161.402 81.7888 162.824 82.3461 163.881 83.4555C164.949 84.5545 165.486 85.9138 165.486 87.5388C165.486 87.9868 165.449 88.393 165.381 88.768H155.194C155.246 90.1847 155.678 91.3045 156.486 92.1222C157.288 92.9451 158.303 93.3513 159.527 93.3513C160.47 93.3513 161.277 93.1378 161.944 92.7055C162.621 92.2628 163.095 91.6847 163.361 90.9763H165.048C164.642 92.0336 163.975 92.9086 163.048 93.6013C162.131 94.2836 160.954 94.6222 159.527 94.6222ZM163.84 87.518C163.84 86.1586 163.428 85.0753 162.611 84.268C161.788 83.4659 160.767 83.0597 159.548 83.0597C158.34 83.0597 157.324 83.4555 156.506 84.2472C155.699 85.0388 155.262 86.1326 155.194 87.518H163.84Z" fill="#1649FF"/>
<path d="M168.317 94.3931V77.6223H169.9V94.3931H168.317Z" fill="#1649FF"/>
<path d="M178.717 93.3513C180.009 93.3513 181.118 92.893 182.051 91.9763C182.993 91.0493 183.467 89.7888 183.467 88.2055C183.467 86.6118 183.019 85.3513 182.134 84.4347C181.243 83.518 180.155 83.0597 178.863 83.0597C177.582 83.0597 176.514 83.518 175.655 84.4347C174.79 85.3409 174.363 86.5961 174.363 88.2055C174.363 89.8201 174.764 91.0805 175.572 91.9972C176.389 92.9034 177.436 93.3513 178.717 93.3513ZM178.738 94.6222C176.957 94.6222 175.514 94.0336 174.405 92.8513C173.306 91.6743 172.759 90.1326 172.759 88.2263C172.759 86.3097 173.342 84.7628 174.509 83.5805C175.686 82.3878 177.16 81.7888 178.926 81.7888C180.702 81.7888 182.181 82.3878 183.363 83.5805C184.54 84.7628 185.134 86.3045 185.134 88.2055C185.134 90.0961 184.509 91.6378 183.259 92.8305C182.019 94.0284 180.514 94.6222 178.738 94.6222Z" fill="#1649FF"/>
</g>
<defs>
<clipPath id="clip0_616_23">
<rect width="209" height="78" fill="white" transform="translate(28 23)"/>
</clipPath>
</defs>
</svg>
